<svg width="11" height="9" viewBox="0 0 11 9" fill="none" xmlns="http://www.w3.org/2000/svg">
<path d="M3.08236 8.13805C3.16331 8.219 3.27312 8.26447 3.3876 8.26447C3.5021 8.26447 3.61188 8.21897 3.6928 8.13805L9.57761 2.25325C9.65859 2.1723 9.70406 2.06251 9.70406 1.94804C9.70406 1.83353 9.65859 1.72375 9.57761 1.6428L8.35669 0.421907C8.18814 0.253361 7.91482 0.253332 7.74624 0.421907L3.38771 4.7805L2.16676 3.55955C2.08581 3.4786 1.976 3.4331 1.86152 3.4331C1.74705 3.4331 1.63726 3.4786 1.55632 3.55955L0.335394 4.78047C0.166848 4.94904 0.166848 5.22234 0.335394 5.39091L3.08236 8.13805Z" fill="white"/>
</svg>
